<?xml version="1.0" encoding="UTF-8" standalone="no"?>
<!DOCTYPE svg PUBLIC "-//W3C//DTD SVG 1.1//EN" "http://www.w3.org/Graphics/SVG/1.1/DTD/svg11.dtd">
<svg width="100%" height="100%" viewBox="0 0 30 30" version="1.1" xmlns="http://www.w3.org/2000/svg" xmlns:xlink="http://www.w3.org/1999/xlink" xml:space="preserve" xmlns:serif="http://www.serif.com/" style="fill-rule:evenodd;clip-rule:evenodd;stroke-linejoin:round;stroke-miterlimit:2;">
    <g transform="matrix(1,0,0,1,0.7239,4.99999)">
        <path d="M15.383,15.725C9.77,20.52 5.784,20.858 3.743,18.815C1.862,16.935 3.422,12.217 7.223,7.558L0,0.337L4.616,0.337L11.791,7.512C7.263,12.067 4.623,16.917 5.988,18.282C7.118,19.414 10.596,17.846 14.349,14.691L15.383,15.725Z" style="fill:rgb(247,247,250);fill-rule:nonzero;"/>
        <path d="M28.552,19.663L23.935,19.663L16.76,12.488C21.288,7.934 23.928,3.082 22.565,1.719C21.435,0.587 17.952,2.157 14.199,5.311L13.166,4.278C18.781,-0.519 22.768,-0.859 24.81,1.184C26.69,3.065 25.132,7.782 21.329,12.441L28.552,19.663Z" style="fill:rgb(247,247,250);fill-rule:nonzero;"/>
    </g>
</svg>
